<svg width="16" height="16" viewBox="0 0 16 16" fill="none" xmlns="http://www.w3.org/2000/svg">
<path d="M8 0C3.58172 0 0 3.58172 0 8C0 12.4183 3.58172 16 8 16C12.4183 16 16 12.4183 16 8C16 3.58172 12.4183 0 8 0ZM8 15C4.134 15 1 11.866 1 8C1 4.134 4.134 1 8 1C11.866 1 15 4.134 15 8C15 11.866 11.866 15 8 15Z" fill="#1C5C7B"/>
<path d="M9 6.5C9 5.94772 8.55228 5.5 8 5.5H6.5V6.5H8V12H7V13H10V12H9V6.5Z" fill="#1C5C7B"/>
<path d="M8 4.5C8.55228 4.5 9 4.05228 9 3.5C9 2.94772 8.55228 2.5 8 2.5C7.44772 2.5 7 2.94772 7 3.5C7 4.05228 7.44772 4.5 8 4.5Z" fill="#1C5C7B"/>
</svg>
