<svg width="14" height="14" viewBox="0 0 14 14" fill="none" xmlns="http://www.w3.org/2000/svg">
<g clip-path="url(#clip0)">
<path d="M6.99969 9.59364C6.60829 9.59364 6.28021 9.92173 6.28021 10.3131C6.28021 10.7045 6.60829 11.0326 6.99969 11.0326C7.37669 11.0326 7.71916 10.7045 7.7019 10.3304C7.71916 9.91885 7.39396 9.59364 6.99969 9.59364Z" fill="#C5C5C5"/>
<path d="M13.6593 12.1437C14.1111 11.3638 14.114 10.4342 13.6651 9.65718L9.15823 1.85227C8.71216 1.06659 7.90634 0.600372 7.00267 0.600372C6.09901 0.600372 5.29319 1.06947 4.84711 1.84939L0.334541 9.66293C-0.114414 10.4486 -0.111536 11.3839 0.343175 12.1638C0.79213 12.9351 1.59507 13.3985 2.49298 13.3985H11.4951C12.3959 13.3985 13.2046 12.9294 13.6593 12.1437ZM12.6808 11.5796C12.4304 12.0113 11.9872 12.2674 11.4922 12.2674H2.4901C2.00085 12.2674 1.56053 12.0171 1.31591 11.594C1.06841 11.1652 1.06553 10.6529 1.31303 10.2212L5.82561 2.41058C6.07023 1.98177 6.50767 1.72852 7.00267 1.72852C7.4948 1.72852 7.93512 1.98465 8.17974 2.41346L12.6894 10.2241C12.9312 10.6443 12.9283 11.1508 12.6808 11.5796Z" fill="#C5C5C5"/>
<path d="M6.82134 4.54335C6.47887 4.6412 6.2659 4.95202 6.2659 5.32902C6.28317 5.55638 6.29756 5.78661 6.31482 6.01397C6.36375 6.88022 6.41267 7.72921 6.4616 8.59546C6.47887 8.88901 6.70622 9.10197 6.99977 9.10197C7.29332 9.10197 7.52355 8.87462 7.53794 8.57819C7.53794 8.39976 7.53794 8.23572 7.55521 8.05441C7.58686 7.49897 7.6214 6.94353 7.65306 6.3881C7.67032 6.02836 7.70198 5.66862 7.71925 5.30888C7.71925 5.17937 7.70198 5.06426 7.65306 4.94914C7.50628 4.62681 7.16381 4.46277 6.82134 4.54335Z" fill="#C5C5C5"/>
</g>
<defs>
<clipPath id="clip0">
<rect width="14" height="14" fill="white"/>
</clipPath>
</defs>
</svg>
