<svg width="24" height="24" viewBox="0 0 24 24" fill="none" xmlns="http://www.w3.org/2000/svg">
<path d="M12 0C5.37258 0 0 5.37258 0 12C0 18.6274 5.37258 24 12 24C18.6274 24 24 18.6274 24 12C24 5.37258 18.6274 0 12 0ZM12 22.5C6.201 22.5 1.5 17.799 1.5 12C1.5 6.201 6.201 1.5 12 1.5C17.799 1.5 22.5 6.201 22.5 12C22.5 17.799 17.799 22.5 12 22.5Z" fill="#BABABA"/>
<path d="M13.5 9.75C13.5 8.92158 12.8284 8.25 12 8.25H9.75V9.75H12V18H10.5V19.5H15V18H13.5V9.75Z" fill="#BABABA"/>
<path d="M12 6.75C12.8284 6.75 13.5 6.07843 13.5 5.25C13.5 4.42157 12.8284 3.75 12 3.75C11.1716 3.75 10.5 4.42157 10.5 5.25C10.5 6.07843 11.1716 6.75 12 6.75Z" fill="#BABABA"/>
</svg>
