<svg width="172" height="56" viewBox="0 0 172 56" fill="none" xmlns="http://www.w3.org/2000/svg">
<path d="M60.3271 18.0238C60.3271 17.4852 60.7754 17.0576 61.3069 17.0576H69.4391C71.2612 17.0576 72.8313 17.7127 74.1482 19.0483C75.4667 20.3838 76.1117 21.9767 76.1117 23.8519C76.1117 25.6996 75.4667 27.2934 74.1482 28.6291C72.8313 29.9667 71.2612 30.6187 69.4391 30.6187H62.2331V37.6437C62.2896 38.8946 60.2701 38.8946 60.327 37.6437V18.0238H60.3271ZM62.2332 18.99V28.6861H69.4392C70.7561 28.6861 71.8499 28.2311 72.776 27.2934C73.7001 26.3558 74.1483 25.1873 74.1483 23.8519C74.1483 22.5163 73.7002 21.3501 72.776 20.4125C71.8499 19.4747 70.7561 18.99 69.4392 18.99H62.2332Z" fill="black"/>
<path d="M86.0947 35.1695L93.3557 17.3985C93.5239 17.028 93.8318 16.8301 94.2501 16.8301C94.8116 16.8301 95.2072 17.228 95.2072 17.7688C95.2072 17.9107 95.1769 18.0525 95.1216 18.1658L86.9619 38.0396C86.821 38.4101 86.5131 38.6089 86.0947 38.6089C85.6742 38.6089 85.3642 38.41 85.2233 38.0396L77.0657 18.1658C77.0077 18.0525 76.9811 17.9107 76.9811 17.7688C76.9811 17.2281 77.3735 16.8301 77.9329 16.8301C78.356 16.8301 78.6633 17.028 78.8319 17.3985L86.0947 35.1695Z" fill="black"/>
<path d="M99.2426 36.3062C97.5603 34.6003 96.7214 32.5534 96.7214 30.1363C96.7214 27.7212 97.5603 25.6724 99.2426 23.9939C100.926 22.29 102.971 21.437 105.355 21.437C107.629 21.437 109.618 22.2328 111.272 23.7948C111.355 23.8817 111.411 24.0235 111.411 24.1653C111.411 24.5929 110.878 24.7919 110.627 24.5357C109.139 23.1134 107.375 22.4021 105.355 22.4021C103.253 22.4021 101.43 23.1705 99.946 24.6775C98.4588 26.1866 97.7012 28.0049 97.7012 30.1363C97.7012 32.2698 98.4588 34.0879 99.946 35.6247C101.46 37.1295 103.253 37.8978 105.355 37.8978C107.347 37.8978 109.112 37.1867 110.627 35.7368C110.877 35.4806 111.411 35.6797 111.411 36.1073C111.411 36.249 111.355 36.3908 111.272 36.4776C109.59 38.0693 107.629 38.8652 105.355 38.8652C102.971 38.8652 100.956 38.0121 99.2426 36.3062Z" fill="black"/>
<path d="M129.499 34.1431C128.794 35.5674 127.73 36.704 126.358 37.5846C124.982 38.4398 123.499 38.8652 121.841 38.8652C119.46 38.8652 117.44 38.0122 115.757 36.3062C114.074 34.6003 113.233 32.5534 113.233 30.1363C113.233 27.7212 114.074 25.6724 115.757 23.9939C117.44 22.29 119.46 21.437 121.841 21.437C123.499 21.437 124.983 21.8625 126.358 22.7441C127.73 23.598 128.794 24.7348 129.499 26.1571V22.1758C129.499 21.5503 130.449 21.5503 130.449 22.1758V38.1244C130.449 38.751 129.499 38.751 129.499 38.1244V34.1431ZM116.432 35.6247C117.916 37.1295 119.74 37.8978 121.841 37.8978C123.944 37.8978 125.768 37.1295 127.252 35.6247C128.741 34.1177 129.499 32.2698 129.499 30.1363C129.499 28.0049 128.74 26.1866 127.252 24.6775C125.768 23.1705 123.944 22.4021 121.841 22.4021C119.74 22.4021 117.916 23.1705 116.432 24.6775C114.945 26.1866 114.215 28.0049 114.215 30.1363C114.215 32.2699 114.945 34.1177 116.432 35.6247Z" fill="black"/>
<path d="M139.535 37.9253C142.788 37.9253 145 36.4775 145 34.1176C145 32.0983 143.403 30.6188 141.049 30.3056L138.02 29.9372C135.412 29.6263 133.812 27.9478 133.812 25.5877C133.812 22.9716 136.143 21.437 139.649 21.437C141.58 21.437 143.373 21.8625 145.033 22.6879C145.562 22.9716 145.143 23.8246 144.582 23.54C143.037 22.7727 141.385 22.4022 139.649 22.4022C136.702 22.4022 134.795 23.5981 134.795 25.6152C134.795 27.2937 136.17 28.7139 138.19 28.9701L141.216 29.3406C144.161 29.6834 145.983 31.4443 145.983 34.1748C145.983 37.1041 143.459 38.8653 139.535 38.8653C137.459 38.8653 135.469 38.3254 133.563 37.246C133.029 36.9624 133.449 36.1073 134.012 36.3908C135.833 37.4152 137.684 37.9253 139.535 37.9253Z" fill="black"/>
<path d="M162.693 23.909C164.348 25.5303 165.245 27.5221 165.33 29.8524C165.33 30.3054 165.02 30.6187 164.655 30.6187H149.152C149.293 32.6675 150.105 34.401 151.535 35.7959C152.993 37.1865 154.732 37.8976 156.75 37.8976C159.413 37.8976 161.796 36.4774 163.169 34.2868C163.252 34.0623 163.424 33.9481 163.648 33.9481C163.9 33.9481 164.124 34.1746 164.124 34.4286C164.124 34.5153 164.069 34.6296 163.983 34.7693C162.414 37.2711 159.748 38.865 156.75 38.865C154.365 38.865 152.346 38.0119 150.664 36.306C149.013 34.6 148.172 32.5531 148.172 30.1361C148.172 27.721 149.013 25.6722 150.664 23.9937C152.346 22.2898 154.365 21.4368 156.75 21.4368C159.048 21.4368 161.038 22.2603 162.693 23.909ZM164.348 29.6536C164.21 27.6343 163.424 25.8986 161.965 24.5059C160.508 23.1132 158.77 22.402 156.75 22.402C154.732 22.402 152.993 23.1132 151.535 24.5059C150.105 25.8986 149.293 27.6047 149.152 29.6536H164.348Z" fill="black"/>
<path d="M25.5206 39.6332C22.5802 41.1835 19.6413 42.7965 16.7008 44.346C13.6804 42.7851 10.6593 41.224 7.63885 39.6631V39.6523C10.66 38.0915 13.6804 36.5304 16.7008 34.9695C19.6413 36.519 22.5809 38.0693 25.5214 39.6188L25.5206 39.6332ZM19.2632 46.0148H19.2429L19.2527 46.0202C19.2497 46.0217 19.2459 46.024 19.2429 46.0255H19.2632C20.7112 46.7738 22.1599 47.5222 23.6079 48.2705C26.5739 49.8039 30.0908 49.7741 33.032 48.1924C34.403 47.4548 35.774 46.7187 37.145 45.9956L37.1458 45.9811C34.2053 44.4308 31.2649 42.8813 28.3252 41.3311L19.2632 46.0148ZM50.1155 37.0202L50.0476 22.9807C50.0287 19.105 47.8775 15.5638 44.4723 13.8031C39.632 11.3002 34.7908 8.79807 29.9497 6.29517V14.3862C35.5348 15.4337 39.7648 20.3982 39.7648 26.3651C39.7648 28.0622 39.4222 29.6775 38.8042 31.1458C42.5747 33.1039 46.3451 35.0613 50.1155 37.0202ZM5.4522 22.9806C5.42956 27.6604 5.40693 32.3396 5.38429 37.0201C9.15471 35.0612 12.9251 33.1039 16.6963 31.1458C16.0783 29.6775 15.7358 28.0621 15.7358 26.365C15.7358 20.3981 19.9657 15.4336 25.55 14.3861V6.29517L11.0275 13.8031C7.62232 15.5637 5.47106 19.105 5.4522 22.9806ZM39.927 34.9695C36.9066 36.5304 33.8854 38.0915 30.865 39.6523V39.6631C33.8854 41.224 36.9066 42.7851 39.927 44.346C42.8674 42.7965 45.8063 41.1835 48.7468 39.6332L48.7475 39.6188C45.8071 38.0693 42.8674 36.519 39.927 34.9695Z" fill="url(#paint0_linear)"/>
<defs>
<linearGradient id="paint0_linear" x1="27.7499" y1="49.4" x2="27.7499" y2="6.29517" gradientUnits="userSpaceOnUse">
<stop stop-color="#FCAC45"/>
<stop offset="1" stop-color="#FCD345"/>
</linearGradient>
</defs>
</svg>
