<svg width="11" height="10" viewBox="0 0 11 10" fill="none" xmlns="http://www.w3.org/2000/svg">
<path d="M9.99995 4.49998H6.00002V0.499954C6.00002 0.224014 5.77599 -1.52588e-05 5.49995 -1.52588e-05C5.22401 -1.52588e-05 4.99998 0.224014 4.99998 0.499954V4.49998H0.999954C0.724014 4.49998 0.499985 4.72401 0.499985 4.99995C0.499985 5.27599 0.724014 5.50002 0.999954 5.50002H4.99998V9.49995C4.99998 9.77599 5.22401 10 5.49995 10C5.77599 10 6.00002 9.77599 6.00002 9.49995V5.50002H9.99995C10.276 5.50002 10.5 5.27599 10.5 4.99995C10.5 4.72401 10.276 4.49998 9.99995 4.49998Z" fill="black"/>
</svg>
